<svg width="32" height="32" viewBox="0 0 32 32" fill="none" xmlns="http://www.w3.org/2000/svg">
<path d="M5.11133 20.5555H26.8891V23.6667C26.8891 24.4918 26.5613 25.2831 25.9779 25.8665C25.3944 26.45 24.6031 26.7778 23.778 26.7778H8.22244C7.39732 26.7778 6.606 26.45 6.02255 25.8665C5.4391 25.2831 5.11133 24.4918 5.11133 23.6667V20.5555Z" stroke="#FF7629" stroke-width="2.07269" stroke-linecap="round" stroke-linejoin="round"/>
<path d="M11.3335 5H20.6669C22.3171 5 23.8998 5.65555 25.0667 6.82245C26.2336 7.98934 26.8891 9.57199 26.8891 11.2222V14.3333H5.11133V11.2222C5.11133 9.57199 5.76688 7.98934 6.93377 6.82245C8.10067 5.65555 9.68331 5 11.3335 5V5Z" stroke="#FF7629" stroke-width="2.07269" stroke-linecap="round" stroke-linejoin="round"/>
<path d="M26.8889 14.3334H5.11111C3.39289 14.3334 2 15.7263 2 17.4445C2 19.1627 3.39289 20.5556 5.11111 20.5556H26.8889C28.6071 20.5556 30 19.1627 30 17.4445C30 15.7263 28.6071 14.3334 26.8889 14.3334Z" stroke="#FF7629" stroke-width="2.07269" stroke-linecap="round" stroke-linejoin="round"/>
</svg>
