<svg width="193" height="30" viewBox="0 0 193 30" fill="none" xmlns="http://www.w3.org/2000/svg">
<g clip-path="url(#clip0_1102:21717)">
<path d="M15.2661 24.6484C15.8298 24.3163 16.5294 24.3163 17.0931 24.6484L22.5299 27.8507C23.898 28.6565 25.5633 27.4254 25.1941 25.8812L23.7827 19.9783C23.6247 19.3174 23.8524 18.6239 24.3713 18.1851L29.0358 14.2419C30.2611 13.206 29.6212 11.2057 28.0222 11.0734L21.7997 10.5584C21.1387 10.5037 20.5614 10.0899 20.2971 9.4816L17.8306 3.80269C17.2035 2.3588 15.1557 2.3588 14.5286 3.80269L12.0621 9.4816C11.7979 10.0899 11.2205 10.5037 10.5595 10.5584L4.337 11.0734C2.73796 11.2057 2.09807 13.206 3.3234 14.2419L7.98788 18.1851C8.50683 18.6238 8.73448 19.3174 8.57645 19.9783L7.16507 25.8812C6.79585 27.4254 8.46122 28.6565 9.82925 27.8507L15.2661 24.6484Z" fill="#FFBE17"/>
<path d="M55.4262 24.6469C55.99 24.3149 56.6895 24.3149 57.2533 24.6469L62.6901 27.8493C64.0581 28.6551 65.7235 27.4239 65.3543 25.8797L63.9429 19.9769C63.7849 19.316 64.0125 18.6224 64.5315 18.1837L69.196 14.2404C70.4213 13.2045 69.7814 11.2043 68.1824 11.0719L61.9598 10.5569C61.2988 10.5022 60.7215 10.0885 60.4573 9.48013L57.9908 3.80123C57.3636 2.35734 55.3159 2.35734 54.6888 3.80123L52.2222 9.48013C51.958 10.0885 51.3807 10.5022 50.7197 10.5569L44.4972 11.0719C42.8981 11.2043 42.2582 13.2045 43.4836 14.2404L48.148 18.1837C48.667 18.6224 48.8946 19.316 48.7366 19.9769L47.3252 25.8797C46.956 27.4239 48.6214 28.6551 49.9894 27.8493L55.4262 24.6469Z" fill="#FFBE17"/>
<path d="M95.5864 24.6469C96.1501 24.3149 96.8497 24.3149 97.4134 24.6469L102.85 27.8493C104.218 28.6551 105.884 27.4239 105.514 25.8797L104.103 19.9769C103.945 19.316 104.173 18.6224 104.692 18.1837L109.356 14.2404C110.581 13.2045 109.942 11.2043 108.343 11.0719L102.12 10.5569C101.459 10.5022 100.882 10.0885 100.617 9.48013L98.1509 3.80123C97.5238 2.35734 95.476 2.35734 94.8489 3.80123L92.3824 9.48013C92.1182 10.0885 91.5408 10.5022 90.8799 10.5569L84.6573 11.0719C83.0583 11.2043 82.4184 13.2045 83.6437 14.2404L88.3082 18.1837C88.8271 18.6224 89.0548 19.316 88.8968 19.9769L87.4854 25.8797C87.1162 27.4239 88.7815 28.6551 90.1496 27.8493L95.5864 24.6469Z" fill="#FFBE17"/>
<path d="M135.747 24.6469C136.311 24.3149 137.01 24.3149 137.574 24.6469L143.011 27.8493C144.379 28.6551 146.044 27.4239 145.675 25.8797L144.264 19.9769C144.106 19.316 144.333 18.6224 144.852 18.1837L149.517 14.2404C150.742 13.2045 150.102 11.2043 148.503 11.0719L142.281 10.5569C141.62 10.5022 141.042 10.0885 140.778 9.48013L138.312 3.80123C137.684 2.35734 135.637 2.35734 135.01 3.80123L132.543 9.48013C132.279 10.0885 131.701 10.5022 131.041 10.5569L124.818 11.0719C123.219 11.2043 122.579 13.2045 123.804 14.2404L128.469 18.1837C128.988 18.6224 129.215 19.316 129.057 19.9769L127.646 25.8797C127.277 27.4239 128.942 28.6551 130.31 27.8493L135.747 24.6469Z" fill="#FFBE17"/>
<path d="M175.907 24.6469C176.471 24.3149 177.17 24.3149 177.734 24.6469L183.171 27.8493C184.539 28.6551 186.204 27.4239 185.835 25.8797L184.424 19.9769C184.266 19.316 184.493 18.6224 185.012 18.1837L189.677 14.2404C190.902 13.2045 190.262 11.2043 188.663 11.0719L182.441 10.5569C181.78 10.5022 181.202 10.0885 180.938 9.48013L178.472 3.80123C177.845 2.35734 175.797 2.35734 175.17 3.80123L172.703 9.48013C172.439 10.0885 171.862 10.5022 171.201 10.5569L164.978 11.0719C163.379 11.2043 162.739 13.2045 163.965 14.2404L168.629 18.1837C169.148 18.6224 169.376 19.316 169.218 19.9769L167.806 25.8797C167.437 27.4239 169.102 28.6551 170.47 27.8493L175.907 24.6469Z" fill="#FFBE17"/>
</g>
<defs>
<clipPath id="clip0_1102:21717">
<rect width="193" height="30" fill="white"/>
</clipPath>
</defs>
</svg>
