<svg width="256" height="256" viewBox="0 0 256 256" fill="none" xmlns="http://www.w3.org/2000/svg">
<path d="M36.1123 167.555H218.89V193.666C218.89 200.591 216.139 207.233 211.242 212.13C206.346 217.026 199.704 219.777 192.779 219.777H62.2234C55.2983 219.777 48.6569 217.026 43.7601 212.13C38.8633 207.233 36.1123 200.591 36.1123 193.666V167.555Z" stroke="#FF7629" stroke-width="16" stroke-linecap="round" stroke-linejoin="round"/>
<path d="M88.3345 37H166.668C180.518 37 193.801 42.502 203.595 52.2955C213.388 62.0891 218.89 75.372 218.89 89.2222V115.333H36.1123V89.2222C36.1123 75.372 41.6143 62.0891 51.4078 52.2955C61.2014 42.502 74.4843 37 88.3345 37V37Z" stroke="#FF7629" stroke-width="16" stroke-linecap="round" stroke-linejoin="round"/>
<path d="M218.889 115.333H36.1111C21.6903 115.333 10 127.024 10 141.444C10 155.865 21.6903 167.556 36.1111 167.556H218.889C233.31 167.556 245 155.865 245 141.444C245 127.024 233.31 115.333 218.889 115.333Z" stroke="#FF7629" stroke-width="16" stroke-linecap="round" stroke-linejoin="round"/>
</svg>
