<svg width="56" height="56" viewBox="0 0 56 56" fill="none" xmlns="http://www.w3.org/2000/svg">
<circle cx="28" cy="28" r="28" fill="#FFEDE1"/>
<path d="M28.0005 23.5843C28.1195 23.5811 28.2379 23.6018 28.3488 23.6451C28.4596 23.6884 28.5607 23.7535 28.646 23.8365C28.7313 23.9196 28.799 24.0189 28.8453 24.1285C28.8916 24.2382 28.9154 24.356 28.9153 24.4751" stroke="#FF7629" stroke-width="2" stroke-linecap="round" stroke-linejoin="round"/>
<path d="M27.1097 24.4751C27.1064 24.3572 27.1272 24.2399 27.1708 24.1303C27.2143 24.0207 27.2798 23.9212 27.3632 23.8378C27.4466 23.7544 27.5461 23.689 27.6557 23.6454C27.7653 23.6018 27.8826 23.581 28.0005 23.5843" stroke="#FF7629" stroke-width="2" stroke-linecap="round" stroke-linejoin="round"/>
<path d="M28.0005 25.3899C27.8814 25.39 27.7636 25.3662 27.6539 25.3199C27.5443 25.2736 27.445 25.2059 27.3619 25.1206C27.2789 25.0353 27.2138 24.9342 27.1705 24.8234C27.1271 24.7125 27.1065 24.5941 27.1097 24.4751" stroke="#FF7629" stroke-width="2" stroke-linecap="round" stroke-linejoin="round"/>
<path d="M28.9153 24.4751C28.9153 24.7177 28.8189 24.9504 28.6474 25.122C28.4758 25.2936 28.2431 25.3899 28.0005 25.3899" stroke="#FF7629" stroke-width="2" stroke-linecap="round" stroke-linejoin="round"/>
<path d="M28.0002 13.6426C29.4238 13.6394 30.834 13.9175 32.1498 14.4608C33.4657 15.0041 34.6612 15.802 35.6679 16.8086C36.6745 17.8153 37.4724 19.0108 38.0157 20.3267C38.559 21.6425 38.8371 23.0527 38.8339 24.4763C38.8339 29.0987 32.3578 37.9101 29.4206 41.6657C29.2517 41.881 29.036 42.055 28.79 42.1747C28.5439 42.2944 28.2738 42.3566 28.0002 42.3566C27.7266 42.3566 27.4565 42.2944 27.2105 42.1747C26.9644 42.055 26.7487 41.881 26.5798 41.6657C23.6427 37.9101 17.1665 29.0987 17.1665 24.4763C17.1634 23.0527 17.4414 21.6425 17.9847 20.3267C18.5281 19.0108 19.3259 17.8153 20.3326 16.8086C21.3392 15.802 22.5348 15.0041 23.8506 14.4608C25.1664 13.9175 26.5766 13.6394 28.0002 13.6426V13.6426Z" stroke="#FF7629" stroke-width="2" stroke-linecap="round" stroke-linejoin="round"/>
</svg>
