<svg width="56" height="56" viewBox="0 0 56 56" fill="none" xmlns="http://www.w3.org/2000/svg">
<circle cx="28" cy="28" r="28" fill="#FFEDE1"/>
<path d="M31.4544 39.7937L31.468 39.8016C32.675 40.5701 34.108 40.9038 35.5303 40.7478C36.9526 40.5919 38.2792 39.9554 39.2909 38.9436L40.1705 38.0641C40.5633 37.6708 40.7839 37.1376 40.7839 36.5817C40.7839 36.0258 40.5633 35.4926 40.1705 35.0993L36.4647 31.3958C36.0714 31.003 35.5382 30.7823 34.9823 30.7823C34.4264 30.7823 33.8932 31.003 33.4999 31.3958V31.3958C33.3054 31.5905 33.0744 31.745 32.8201 31.8505C32.5659 31.9559 32.2933 32.0101 32.018 32.0101C31.7428 32.0101 31.4702 31.9559 31.216 31.8505C30.9617 31.745 30.7307 31.5905 30.5362 31.3958L24.6066 25.465C24.2137 25.0717 23.9931 24.5385 23.9931 23.9826C23.9931 23.4267 24.2137 22.8935 24.6066 22.5002V22.5002C24.8013 22.3057 24.9558 22.0747 25.0612 21.8204C25.1666 21.5662 25.2209 21.2936 25.2209 21.0184C25.2209 20.7431 25.1666 20.4705 25.0612 20.2163C24.9558 19.962 24.8013 19.731 24.6066 19.5365L20.902 15.8274C20.5086 15.4345 19.9754 15.2139 19.4195 15.2139C18.8636 15.2139 18.3305 15.4345 17.9371 15.8274L17.0576 16.7069C16.046 17.7187 15.4096 19.0452 15.2534 20.4674C15.0972 21.8896 15.4306 23.3225 16.1985 24.5298L16.2076 24.5434C20.2683 30.5547 25.444 35.7316 31.4544 39.7937V39.7937Z" stroke="#FF7629" stroke-width="2" stroke-linecap="round" stroke-linejoin="round"/>
</svg>
