<svg width="56" height="56" viewBox="0 0 56 56" fill="none" xmlns="http://www.w3.org/2000/svg">
<circle cx="28" cy="28" r="28" fill="#FFEDE1"/>
<path d="M41.5287 21.2363V34.7651C41.5287 35.6621 41.1723 36.5223 40.538 37.1566C39.9037 37.7909 39.0435 38.1472 38.1465 38.1472H17.8534C16.9564 38.1472 16.0961 37.7909 15.4618 37.1566C14.8275 36.5223 14.4712 35.6621 14.4712 34.7651V21.2363" stroke="#FF7629" stroke-width="1.96932" stroke-linecap="round" stroke-linejoin="round"/>
<path d="M41.5287 21.2357C41.5287 20.3387 41.1723 19.4784 40.538 18.8441C39.9037 18.2099 39.0435 17.8535 38.1465 17.8535H17.8534C16.9564 17.8535 16.0961 18.2099 15.4618 18.8441C14.8275 19.4784 14.4712 20.3387 14.4712 21.2357L26.2074 28.566C26.7449 28.902 27.366 29.0801 27.9999 29.0801C28.6338 29.0801 29.2549 28.902 29.7925 28.566L41.5287 21.2357Z" stroke="#FF7629" stroke-width="1.96932" stroke-linecap="round" stroke-linejoin="round"/>
</svg>
